# xmcd
# 
# Track frame offsets:
#     150
#     13137
#     27472
#     40667
#     53340
#     66532
#     78900
#     91542
#     105030
#     117247
#     129997
#     144060
#     155065
#     168757
#     182897
#     194035
#     205587
# 
# Disc length: 2921
# 
# Revision: 2
# Processed by: cddbd v1.5.2PL0 Copyright (c) Steve Scherf et al.
# Submitted via: BonkEnc v1.0.8
# 
DISCID=d10b6711
DTITLE=Stan Getz - The Complete Roost Session Vol.2
DYEAR=1951
DGENRE=Jazz
TTITLE0=Penny
TTITLE1=Split Kick
TTITLE2=Split Kick [alternate take, previously unreleased]
TTITLE3=It Might As Well Be Spring
TTITLE4=It Might As Well Be Spring [alternate take, previously unreleased]
TTITLE5=The Best Things For You
TTITLE6=Melody Express
TTITLE7=Yvette
TTITLE8=Potter's Luck
TTITLE9=The Song Is You
TTITLE10=Wildwood
TTITLE11=Lullaby Of Birdland
TTITLE12=Autumn Leaves
TTITLE13=Autumn Leaves [alternate take, previously unreleased]
TTITLE14=Fools Rush In
TTITLE15=Fools Rush In [alternate take, previously unreleased]
TTITLE16=These Foolish Things
EXTD=YEAR: 1997
EXTT0=
EXTT1=
EXTT2=
EXTT3=
EXTT4=
EXTT5=
EXTT6=
EXTT7=
EXTT8=
EXTT9=
EXTT10=
EXTT11=
EXTT12=
EXTT13=
EXTT14=
EXTT15=
EXTT16=
PLAYORDER=
